# xmcd
#
# Track frame offsets:
#        150
#        43347
#        85685
#        105602
#        151837
#        176842
#        225087
#        257930
#        294035
#
# Disc length: 4394 seconds
#
# Revision: 0
# Processed by: cddbd v1.5.1PL0 Copyright (c) Steve Scherf et al.
# Submitted via: ExactAudioCopy v0.95a5
#
DISCID=68112809
DTITLE=Various Artist - Blue Note For You -Originals-
DYEAR=1900
DGENRE=
TTITLE0=Art Blakey - Moanin'
TTITLE1=Sonny Clark - Cool Struttin'
TTITLE2=Bud Powell - Cleopatra's Dream
TTITLE3=Lee Morgan - The Sidewinder
TTITLE4=Duke Jordan - Flight To Jordan
TTITLE5=John Coltrane - Blue Train
TTITLE6=Horace Silver - Song For My Father
TTITLE7=Joe Henderson - Blue Bossa
TTITLE8=Herbie Hancock - Maiden Voyage
EXTD=
EXTT0=
EXTT1=
EXTT2=
EXTT3=
EXTT4=
EXTT5=
EXTT6=
EXTT7=
EXTT8=
PLAYORDER=
